# Blender v2.79 (sub 0) OBJ File: 'crystal.blend'
# www.blender.org
mtllib crystal.mtl
o Cube_Cube.001
v -0.125000 -0.337456 0.125000
v -0.125000 0.337456 0.125000
v -0.125000 -0.337456 -0.125000
v -0.125000 0.337456 -0.125000
v 0.125000 -0.337456 0.125000
v 0.125000 0.337456 0.125000
v 0.125000 -0.337456 -0.125000
v 0.125000 0.337456 -0.125000
v 0.000000 0.500000 0.000000
v 0.000000 0.500000 0.000000
v 0.000000 0.500000 0.000000
v 0.000000 0.500000 0.000000
v 0.000000 -0.500000 0.000000
v 0.000000 -0.500000 0.000000
v 0.000000 -0.500000 0.000000
v 0.000000 -0.500000 0.000000
vn -1.0000 0.0000 0.0000
vn 0.0000 0.0000 -1.0000
vn 1.0000 0.0000 0.0000
vn 0.0000 0.0000 1.0000
vn 0.7927 -0.6096 0.0000
vn 0.0000 0.6096 -0.7927
vn 0.7927 0.6096 0.0000
vn -0.7927 0.6096 0.0000
vn 0.0000 0.6096 0.7927
vn 0.0000 -0.6096 0.7927
vn 0.0000 -0.6096 -0.7927
vn -0.7927 -0.6096 0.0000
usemtl Material.001
s off
f 1//1 2//1 4//1 3//1
f 3//2 4//2 8//2 7//2
f 7//3 8//3 6//3 5//3
f 5//4 6//4 2//4 1//4
f 7//5 5//5 16//5 15//5
f 8//6 4//6 10//6 11//6
f 11//4 10//4 9//4 12//4
f 6//7 8//7 11//7 12//7
f 4//8 2//8 9//8 10//8
f 2//9 6//9 12//9 9//9
f 13//4 15//4 16//4 14//4
f 5//10 1//10 14//10 16//10
f 3//11 7//11 15//11 13//11
f 1//12 3//12 13//12 14//12
